0
SECTION
2
HEADER
9
$INSUNITS
70
4
9
$ACADVER
1
AC1014
9
$HANDSEED
5
FFFF
0
ENDSEC
0
SECTION
2
TABLES
0
TABLE
2
VPORT
5
8
100
AcDbSymbolTable
0
ENDTAB
0
TABLE
2
LTYPE
5
5
100
AcDbSymbolTable
0
LTYPE
5
14
100
AcDbSymbolTableRecord
100
AcDbLinetypeTableRecord
2
BYBLOCK
70
0
0
LTYPE
5
15
100
AcDbSymbolTableRecord
100
AcDbLinetypeTableRecord
2
BYLAYER
70
0
0
ENDTAB
0
TABLE
2
LAYER
5
2
100
AcDbSymbolTable
70
2
0
LAYER
5
50
100
AcDbSymbolTableRecord
100
AcDbLayerTableRecord
2
0
70
0
6
CONTINUOUS
0
ENDTAB
0
TABLE
2
STYLE
5
3
100
AcDbSymbolTable
70
1
0
STYLE
5
11
100
AcDbSymbolTableRecord
100
AcDbTextStyleTableRecord
2
STANDARD
70
0
0
ENDTAB
0
TABLE
2
VIEW
5
6
100
AcDbSymbolTable
70
0
0
ENDTAB
0
TABLE
2
UCS
5
7
100
AcDbSymbolTable
70
0
0
ENDTAB
0
TABLE
2
APPID
5
9
100
AcDbSymbolTable
70
2
0
APPID
5
12
100
AcDbSymbolTableRecord
100
AcDbRegAppTableRecord
2
ACAD
70
0
0
ENDTAB
0
TABLE
2
DIMSTYLE
5
A
100
AcDbSymbolTable
70
1
0
ENDTAB
0
TABLE
2
BLOCK_RECORD
5
1
100
AcDbSymbolTable
70
1
0
BLOCK_RECORD
5
1F
100
AcDbSymbolTableRecord
100
AcDbBlockTableRecord
2
*MODEL_SPACE
0
BLOCK_RECORD
5
1B
100
AcDbSymbolTableRecord
100
AcDbBlockTableRecord
2
*PAPER_SPACE
0
ENDTAB
0
ENDSEC
0
SECTION
2
BLOCKS
0
BLOCK
5
20
100
AcDbEntity
100
AcDbBlockBegin
2
*MODEL_SPACE
0
ENDBLK
5
21
100
AcDbEntity
100
AcDbBlockEnd
0
BLOCK
5
1C
100
AcDbEntity
100
AcDbBlockBegin
2
*PAPER_SPACE
0
ENDBLK
5
1D
100
AcDbEntity
100
AcDbBlockEnd
0
ENDSEC
0
SECTION
2
ENTITIES
0
ARC
5
100
100
AcDbEntity
8
OUTER_PROFILES
100
AcDbCircle
10
323.41398223686156
20
34.729289321881311
30
0
40
15.000000000000002
210
-0
220
-0
230
-1
100
AcDbArc
50
-90
51
0
0
LINE
5
101
100
AcDbEntity
8
OUTER_PROFILES
100
AcDbLine
10
-323.41398223686156
20
19.729289321881303
30
0
11
-300.4654866776462
21
19.729289321881307
31
0
0
LINE
5
102
100
AcDbEntity
8
OUTER_PROFILES
100
AcDbLine
10
-300.4654866776462
20
19.729289321881307
30
0
11
-300.46548667764625
21
-3.5527136788005009e-14
31
0
0
LINE
5
103
100
AcDbEntity
8
OUTER_PROFILES
100
AcDbLine
10
-300.46548667764625
20
-3.5527136788005009e-14
30
0
11
-106.13699111843079
21
-1.7763568394002505e-14
31
0
0
LINE
5
104
100
AcDbEntity
8
OUTER_PROFILES
100
AcDbLine
10
-106.13699111843079
20
-1.7763568394002505e-14
30
0
11
-106.13699111843079
21
0.049289321881307302
31
0
0
LINE
5
105
100
AcDbEntity
8
OUTER_PROFILES
100
AcDbLine
10
-106.13699111843079
20
0.049289321881307302
30
0
11
-105.9484955592154
21
0.049289321881307302
31
0
0
LINE
5
106
100
AcDbEntity
8
OUTER_PROFILES
100
AcDbLine
10
-105.9484955592154
20
0.049289321881307302
30
0
11
-105.9484955592154
21
-0.13920623733409437
31
0
0
LINE
5
107
100
AcDbEntity
8
OUTER_PROFILES
100
AcDbLine
10
-105.9484955592154
20
-0.13920623733409437
30
0
11
-105.99778488109681
21
-0.13920623733409437
31
0
0
LINE
5
108
100
AcDbEntity
8
OUTER_PROFILES
100
AcDbLine
10
-105.99778488109681
20
-0.13920623733409437
30
0
11
-105.99778488109675
21
-46.019206237334075
31
0
0
LINE
5
109
100
AcDbEntity
8
OUTER_PROFILES
100
AcDbLine
10
-105.99778488109675
20
-46.019206237334075
30
0
11
-126.94628044031218
21
-46.019206237334075
31
0
0
ARC
5
110
100
AcDbEntity
8
OUTER_PROFILES
100
AcDbCircle
10
126.94628044031218
20
-61.019206237334075
30
0
40
15
210
0
220
0
230
-1
100
AcDbArc
50
0
51
90
0
LINE
5
111
100
AcDbEntity
8
OUTER_PROFILES
100
AcDbLine
10
-141.94628044031217
20
-61.019206237334075
30
0
11
-141.94628044031219
21
-73.019206237334089
31
0
0
ARC
5
112
100
AcDbEntity
8
OUTER_PROFILES
100
AcDbCircle
10
126.94628044031219
20
-73.019206237334103
30
0
40
15.000000000000009
210
-0
220
-0
230
-1
100
AcDbArc
50
-90
51
0
0
LINE
5
113
100
AcDbEntity
8
OUTER_PROFILES
100
AcDbLine
10
-126.94628044031219
20
-88.019206237334103
30
0
11
-0.13920623733403303
21
-88.019206237334117
31
0
0
LINE
5
114
100
AcDbEntity
8
OUTER_PROFILES
100
AcDbLine
10
-0.13920623733403303
20
-88.019206237334117
30
0
11
-0.13920623733403303
21
-39.079206237334091
31
0
0
LINE
5
115
100
AcDbEntity
8
OUTER_PROFILES
100
AcDbLine
10
-0.13920623733403303
20
-39.079206237334091
30
0
11
12.809289321881357
21
-39.079206237334105
31
0
0
ARC
5
116
100
AcDbEntity
8
OUTER_PROFILES
100
AcDbCircle
10
-12.80928932188136
20
-24.079206237334098
30
0
40
14.999999999999998
210
0
220
0
230
-1
100
AcDbArc
50
180
51
270
0
LINE
5
117
100
AcDbEntity
8
OUTER_PROFILES
100
AcDbLine
10
27.809289321881359
20
-24.079206237334077
30
0
11
27.809289321881355
21
-19.079206237334088
31
0
0
ARC
5
118
100
AcDbEntity
8
OUTER_PROFILES
100
AcDbCircle
10
-12.809289321881357
20
-19.079206237334102
30
0
40
15
210
0
220
0
230
-1
100
AcDbArc
50
89.999999999999972
51
180
0
LINE
5
119
100
AcDbEntity
8
OUTER_PROFILES
100
AcDbLine
10
12.80928932188135
20
-4.0792062373341036
30
0
11
-0.13920623733403303
21
-4.0792062373341036
31
0
0
LINE
5
120
100
AcDbEntity
8
OUTER_PROFILES
100
AcDbLine
10
-0.13920623733403303
20
-4.0792062373341036
30
0
11
-0.13920623733406856
21
-0.13920623733409465
31
0
0
LINE
5
121
100
AcDbEntity
8
OUTER_PROFILES
100
AcDbLine
10
-0.13920623733406856
20
-0.13920623733409465
30
0
11
-0.18849555921539363
21
-0.13920623733409437
31
0
0
LINE
5
122
100
AcDbEntity
8
OUTER_PROFILES
100
AcDbLine
10
-0.18849555921539363
20
-0.13920623733409437
30
0
11
-0.18849555921539363
21
0.049289321881307302
31
0
0
LINE
5
123
100
AcDbEntity
8
OUTER_PROFILES
100
AcDbLine
10
-0.18849555921539363
20
0.049289321881307302
30
0
11
0
21
0.049289321881289538
31
0
0
LINE
5
124
100
AcDbEntity
8
OUTER_PROFILES
100
AcDbLine
10
0
20
0.049289321881289538
30
0
11
0
21
0
31
0
0
LINE
5
125
100
AcDbEntity
8
OUTER_PROFILES
100
AcDbLine
10
0
20
0
30
0
11
270.52247779607706
21
-1.7763568394002505e-14
31
0
0
SPLINE
5
126
100
AcDbEntity
8
OUTER_PROFILES
100
AcDbSpline
70
0
71
3
72
22
73
18
74
0
42
0.000000001
43
0.0000000001
44
0.0000000001
40
0
40
0
40
0
40
0
40
0.0062889588368297738
40
0.0062889588368297738
40
0.024851832975487372
40
0.024851832975487372
40
0.13014356042075576
40
0.13014356042075576
40
0.71637440177694423
40
0.71637440177694423
40
0.97540192320815733
40
0.97540192320815733
40
1.0475777289192951
40
1.0475777289192951
40
1.0670727046070032
40
1.0670727046070032
40
1.0803268225284866
40
1.0803268225284866
40
1.0803268225284866
40
1.0803268225284866
10
284.52247779607706
20
13.999999999999986
30
0
10
284.52247779607706
20
13.979036803877216
30
0
10
284.51777882066972
20
13.955624340221311
30
0
10
284.49220261421573
20
13.866357406517125
30
0
10
284.45151194961653
20
13.785561220399698
30
0
10
284.18445608749255
20
13.311610189881824
30
0
10
283.66429957812437
20
12.668223419117686
30
0
10
281.52252776178864
20
10.095354085927646
30
0
10
278.03917048444561
20
6.4899376844697709
30
0
10
273.63384238318582
20
2.3652931448122949
30
0
10
272.48207953479562
20
1.3530318960812338
30
0
10
271.43789451345071
20
0.53641284583498816
30
0
10
271.12696018403119
20
0.30204367706872404
30
0
10
270.81025305211494
20
0.11106176277989377
30
0
10
270.72852566577058
20
0.065174428841920928
30
0
10
270.60577764613902
20
0.014104855546790418
30
0
10
270.55878000238363
20
-1.7763568394002505e-14
30
0
10
270.52247779607706
20
-1.7763568394002505e-14
30
0
0
LINE
5
127
100
AcDbEntity
8
OUTER_PROFILES
100
AcDbLine
10
284.52247779607706
20
13.999999999999986
30
0
11
284.52247779607706
21
151.85857864376266
31
0
0
SPLINE
5
128
100
AcDbEntity
8
OUTER_PROFILES
100
AcDbSpline
70
0
71
3
72
22
73
18
74
0
42
0.000000001
43
0.0000000001
44
0.0000000001
40
0
40
0
40
0
40
0
40
0.0062889588367675588
40
0.0062889588367675588
40
0.024851832975089354
40
0.024851832975089354
40
0.13014356041980146
40
0.13014356041980146
40
0.71637440177162071
40
0.71637440177162071
40
0.97540192320145991
40
0.97540192320145991
40
1.0475777289123027
40
1.0475777289123027
40
1.0670727045997832
40
1.0670727045997832
40
1.0803268225187512
40
1.0803268225187512
40
1.0803268225187512
40
1.0803268225187512
10
270.52247779607706
20
165.85857864376266
30
0
10
270.54344099219963
20
165.85857864376266
30
0
10
270.56685345585538
20
165.8538796683554
30
0
10
270.65612038956033
20
165.82830346190116
30
0
10
270.73691657567826
20
165.78761279730159
30
0
10
271.21086760619494
20
165.52055693517829
30
0
10
271.85425437695841
20
165.00040042581071
30
0
10
274.42712371014949
20
162.85862860947412
30
0
10
278.03254011160743
20
159.37527133213098
30
0
10
282.15718465126736
20
154.96994323086869
30
0
10
283.16944589999696
20
153.81818038247982
30
0
10
283.98606495024194
20
152.7739953611364
30
0
10
284.2204341190083
20
152.46306103171682
30
0
10
284.41141603329686
20
152.14635389980111
30
0
10
284.45730336723506
20
152.06462651345626
30
0
10
284.50837294052661
20
151.94187849383349
30
0
10
284.52247779607706
20
151.8948808500738
30
0
10
284.52247779607706
20
151.85857864376266
30
0
0
LINE
5
129
100
AcDbEntity
8
OUTER_PROFILES
100
AcDbLine
10
270.52247779607706
20
165.85857864376266
30
0
11
0
21
165.85857864376266
31
0
0
LINE
5
130
100
AcDbEntity
8
OUTER_PROFILES
100
AcDbLine
10
0
20
165.85857864376266
30
0
11
0
21
165.80928932188129
31
0
0
LINE
5
131
100
AcDbEntity
8
OUTER_PROFILES
100
AcDbLine
10
0
20
165.80928932188129
30
0
11
-0.18849555921539363
21
165.80928932188129
31
0
0
LINE
5
132
100
AcDbEntity
8
OUTER_PROFILES
100
AcDbLine
10
-0.18849555921539363
20
165.80928932188129
30
0
11
-0.18849555921539363
21
165.99778488109672
31
0
0
LINE
5
133
100
AcDbEntity
8
OUTER_PROFILES
100
AcDbLine
10
-0.18849555921539363
20
165.99778488109672
30
0
11
-0.13920623733399751
21
165.99778488109672
31
0
0
LINE
5
134
100
AcDbEntity
8
OUTER_PROFILES
100
AcDbLine
10
-0.13920623733399751
20
165.99778488109672
30
0
11
-0.13920623733403303
21
169.93778488109669
31
0
0
LINE
5
135
100
AcDbEntity
8
OUTER_PROFILES
100
AcDbLine
10
-0.13920623733403303
20
169.93778488109669
30
0
11
12.809289321881348
21
169.93778488109669
31
0
0
ARC
5
136
100
AcDbEntity
8
OUTER_PROFILES
100
AcDbCircle
10
-12.809289321881357
20
184.93778488109669
30
0
40
15.000000000000002
210
0
220
0
230
-1
100
AcDbArc
50
180
51
270.00000000000006
0
LINE
5
137
100
AcDbEntity
8
OUTER_PROFILES
100
AcDbLine
10
27.809289321881359
20
184.93778488109669
30
0
11
27.809289321881362
21
189.93778488109669
31
0
0
ARC
5
138
100
AcDbEntity
8
OUTER_PROFILES
100
AcDbCircle
10
-12.80928932188136
20
189.93778488109669
30
0
40
15
210
0
220
0
230
-1
100
AcDbArc
50
89.999999999999972
51
180
0
LINE
5
139
100
AcDbEntity
8
OUTER_PROFILES
100
AcDbLine
10
12.809289321881351
20
204.93778488109669
30
0
11
-0.13920623733403303
21
204.93778488109669
31
0
0
LINE
5
140
100
AcDbEntity
8
OUTER_PROFILES
100
AcDbLine
10
-0.13920623733403303
20
204.93778488109669
30
0
11
-0.13920623733403303
21
253.87778488109674
31
0
0
LINE
5
141
100
AcDbEntity
8
OUTER_PROFILES
100
AcDbLine
10
-0.13920623733403303
20
253.87778488109674
30
0
11
-126.94628044031218
21
253.87778488109666
31
0
0
ARC
5
142
100
AcDbEntity
8
OUTER_PROFILES
100
AcDbCircle
10
126.94628044031218
20
238.87778488109674
30
0
40
15
210
0
220
0
230
-1
100
AcDbArc
50
0
51
90
0
LINE
5
143
100
AcDbEntity
8
OUTER_PROFILES
100
AcDbLine
10
-141.94628044031217
20
238.87778488109674
30
0
11
-141.94628044031219
21
226.87778488109672
31
0
0
ARC
5
144
100
AcDbEntity
8
OUTER_PROFILES
100
AcDbCircle
10
126.94628044031219
20
226.87778488109672
30
0
40
15
210
-0
220
-0
230
-1
100
AcDbArc
50
-90
51
0
0
LINE
5
145
100
AcDbEntity
8
OUTER_PROFILES
100
AcDbLine
10
-126.94628044031219
20
211.87778488109672
30
0
11
-105.99778488109675
21
211.87778488109672
31
0
0
LINE
5
146
100
AcDbEntity
8
OUTER_PROFILES
100
AcDbLine
10
-105.99778488109675
20
211.87778488109672
30
0
11
-105.99778488109672
21
165.99778488109672
31
0
0
LINE
5
147
100
AcDbEntity
8
OUTER_PROFILES
100
AcDbLine
10
-105.99778488109672
20
165.99778488109672
30
0
11
-105.9484955592154
21
165.99778488109672
31
0
0
LINE
5
148
100
AcDbEntity
8
OUTER_PROFILES
100
AcDbLine
10
-105.9484955592154
20
165.99778488109672
30
0
11
-105.9484955592154
21
165.80928932188129
31
0
0
LINE
5
149
100
AcDbEntity
8
OUTER_PROFILES
100
AcDbLine
10
-105.9484955592154
20
165.80928932188129
30
0
11
-106.13699111843079
21
165.80928932188129
31
0
0
LINE
5
150
100
AcDbEntity
8
OUTER_PROFILES
100
AcDbLine
10
-106.13699111843079
20
165.80928932188129
30
0
11
-106.13699111843079
21
165.8585786437626
31
0
0
LINE
5
151
100
AcDbEntity
8
OUTER_PROFILES
100
AcDbLine
10
-106.13699111843079
20
165.8585786437626
30
0
11
-300.46548667764625
21
165.85857864376266
31
0
0
LINE
5
152
100
AcDbEntity
8
OUTER_PROFILES
100
AcDbLine
10
-300.46548667764625
20
165.85857864376266
30
0
11
-300.4654866776462
21
64.929289321881299
31
0
0
LINE
5
153
100
AcDbEntity
8
OUTER_PROFILES
100
AcDbLine
10
-300.4654866776462
20
64.929289321881299
30
0
11
-323.41398223686156
21
64.929289321881313
31
0
0
ARC
5
154
100
AcDbEntity
8
OUTER_PROFILES
100
AcDbCircle
10
323.41398223686156
20
49.929289321881313
30
0
40
15
210
-0
220
0
230
-1
100
AcDbArc
50
0
51
90
0
LINE
5
155
100
AcDbEntity
8
OUTER_PROFILES
100
AcDbLine
10
-338.41398223686156
20
49.929289321881299
30
0
11
-338.41398223686156
21
34.729289321881311
31
0
0
SPLINE
5
156
100
AcDbEntity
8
INTERIOR_PROFILES
100
AcDbSpline
70
0
71
3
72
8
73
4
74
0
42
0.000000001
43
0.0000000001
44
0.0000000001
40
-0.010256474472195626
40
-0.010256474472195626
40
-0.010256474472195626
40
-0.010256474472195626
40
0
40
0
40
0
40
0
10
85.844239593564794
20
19.506290930979876
30
0
10
85.877525251154069
20
19.495002559694786
30
0
10
85.914307310974266
20
19.487456883471769
30
0
10
85.948495559214905
20
19.487456883471769
30
0
0
SPLINE
5
157
100
AcDbEntity
8
INTERIOR_PROFILES
100
AcDbSpline
70
0
71
3
72
8
73
4
74
0
42
0.000000001
43
0.0000000001
44
0.0000000001
40
-0.018947806516877719
40
-0.018947806516877719
40
-0.018947806516877719
40
-0.018947806516877719
40
-0.010256474472195626
40
-0.010256474472195626
40
-0.010256474472195626
40
-0.010256474472195626
10
85.759999999999494
20
19.540865688096837
30
0
10
85.786436912710272
20
19.529016018209294
30
0
10
85.816033341677866
20
19.515856691938822
30
0
10
85.844239593564794
20
19.506290930979876
30
0
0
ARC
5
158
100
AcDbEntity
8
INTERIOR_PROFILES
100
AcDbCircle
10
-95.985420418837379
20
42.354036823606016
30
0
40
25.00000000000032
210
-0
220
0
230
-1
100
AcDbArc
50
-65.856912280887641
51
65.85691228088865
0
SPLINE
5
159
100
AcDbEntity
8
INTERIOR_PROFILES
100
AcDbSpline
70
0
71
3
72
8
73
4
74
0
42
0.000000001
43
0.0000000001
44
0.0000000001
40
0.010256474472198285
40
0.010256474472198285
40
0.010256474472198285
40
0.010256474472198285
40
0.018947806516877629
40
0.018947806516877629
40
0.018947806516877629
40
0.018947806516877629
10
85.844239593564765
20
65.201782716231918
30
0
10
85.816033341677894
20
65.192216955272983
30
0
10
85.786436912710272
20
65.179057629002514
30
0
10
85.759999999999494
20
65.167207959114975
30
0
0
SPLINE
5
160
100
AcDbEntity
8
INTERIOR_PROFILES
100
AcDbSpline
70
0
71
3
72
8
73
4
74
0
42
0.000000001
43
0.0000000001
44
0.0000000001
40
0
40
0
40
0
40
0
40
0.010256474472198285
40
0.010256474472198285
40
0.010256474472198285
40
0.010256474472198285
10
85.948495559214905
20
65.22061676374004
30
0
10
85.914307310974237
20
65.22061676374004
30
0
10
85.87752525115404
20
65.213071087517008
30
0
10
85.844239593564765
20
65.201782716231918
30
0
0
LINE
5
161
100
AcDbEntity
8
INTERIOR_PROFILES
100
AcDbLine
10
85.948495559214905
20
65.22061676374004
30
0
11
88.708495559215294
21
65.220616763739969
31
0
0
SPLINE
5
162
100
AcDbEntity
8
INTERIOR_PROFILES
100
AcDbSpline
70
0
71
3
72
8
73
4
74
0
42
0.000000001
43
0.0000000001
44
0.0000000001
40
-0.01025647447219627
40
-0.01025647447219627
40
-0.01025647447219627
40
-0.01025647447219627
40
0
40
0
40
0
40
0
10
88.81275152486532
20
65.201782716231861
30
0
10
88.779465867276016
20
65.213071087516965
30
0
10
88.742683807455819
20
65.220616763739983
30
0
10
88.70849555921518
20
65.220616763739983
30
0
0
SPLINE
5
163
100
AcDbEntity
8
INTERIOR_PROFILES
100
AcDbSpline
70
0
71
3
72
8
73
4
74
0
42
0.000000001
43
0.0000000001
44
0.0000000001
40
-0.018947806516876747
40
-0.018947806516876747
40
-0.018947806516876747
40
-0.018947806516876747
40
-0.01025647447219627
40
-0.01025647447219627
40
-0.01025647447219627
40
-0.01025647447219627
10
88.896991118430591
20
65.167207959114918
30
0
10
88.870554205719813
20
65.179057629002457
30
0
10
88.840957776752219
20
65.19221695527294
30
0
10
88.81275152486532
20
65.201782716231861
30
0
0
ARC
5
164
100
AcDbEntity
8
INTERIOR_PROFILES
100
AcDbCircle
10
-78.671570699593317
20
42.354036823606016
30
0
40
24.999999999999819
210
0
220
0
230
-1
100
AcDbArc
50
114.14308771911134
51
245.85691228088839
0
SPLINE
5
165
100
AcDbEntity
8
INTERIOR_PROFILES
100
AcDbSpline
70
0
71
3
72
8
73
4
74
0
42
0.000000001
43
0.0000000001
44
0.0000000001
40
0.010256474472195394
40
0.010256474472195394
40
0.010256474472195394
40
0.010256474472195394
40
0.018947806516876779
40
0.018947806516876779
40
0.018947806516876779
40
0.018947806516876779
10
88.81275152486532
20
19.50629093097994
30
0
10
88.840957776752219
20
19.515856691938872
30
0
10
88.870554205719813
20
19.529016018209347
30
0
10
88.896991118430591
20
19.54086568809689
30
0
0
SPLINE
5
166
100
AcDbEntity
8
INTERIOR_PROFILES
100
AcDbSpline
70
0
71
3
72
8
73
4
74
0
42
0.000000001
43
0.0000000001
44
0.0000000001
40
0
40
0
40
0
40
0
40
0.010256474472195394
40
0.010256474472195394
40
0.010256474472195394
40
0.010256474472195394
10
88.70849555921518
20
19.487456883471822
30
0
10
88.742683807455819
20
19.487456883471822
30
0
10
88.779465867276016
20
19.495002559694832
30
0
10
88.81275152486532
20
19.50629093097994
30
0
0
LINE
5
167
100
AcDbEntity
8
INTERIOR_PROFILES
100
AcDbLine
10
88.70849555921518
20
19.487456883471822
30
0
11
85.948495559214905
21
19.487456883471769
31
0
0
LWPOLYLINE
5
168
100
AcDbEntity
8
INTERIOR_PROFILES
100
AcDbPolyline
90
4
70
1
43
0.0
10
216.72548667764522
20
147.9292893218813
10
152.72548667764528
20
147.9292893218813
42
0.3333333333333322
10
152.72548667764531
20
102.92928932188134
10
216.72548667764522
20
102.92928932188131
0
CIRCLE
5
169
100
AcDbEntity
8
INTERIOR_PROFILES
100
AcDbCircle
10
-135.22548667764528
20
125.42928932188131
30
0
40
4.1999999999999993
210
0
220
0
230
-1
0
CIRCLE
5
170
100
AcDbEntity
8
INTERIOR_PROFILES
100
AcDbCircle
10
-176.72548667764531
20
47.929289321881313
30
0
40
39.999999999999993
210
0
220
0
230
-1
0
LINE
5
171
100
AcDbEntity
8
BEND
100
AcDbLine
10
-298.43973445725373
20
64.929289321881299
30
5.8691908386506457e-11
11
-298.43973445725373
21
19.729289321881307
31
6.1176121385543577e-11
0
LINE
5
172
100
AcDbEntity
8
BEND
100
AcDbLine
10
-0.094247779607705695
20
0.049289321881307302
30
2.3125715245809557e-14
11
-0.094247779607705695
21
165.80928932188129
31
-9.1767373783133128e-12
0
LINE
5
173
100
AcDbEntity
8
BEND
100
AcDbLine
10
88.80274333882403
20
-1.7763568394002505e-14
30
-1.9701526499908855e-11
11
88.802743338823035
21
165.85857864376266
31
-2.8966286856650101e-11
0
LINE
5
174
100
AcDbEntity
8
BEND
100
AcDbLine
10
-0.18849555921539363
20
165.90353710148904
30
-9.1622135854489193e-12
11
-105.9484955592154
21
165.90353710148904
31
1.4868033573256884e-11
0
LINE
5
175
100
AcDbEntity
8
BEND
100
AcDbLine
10
-194.99123889803855
20
165.85857864376266
30
3.5026445043325701e-11
11
-194.99123889803855
21
0
31
4.4248152431545775e-11
0
LINE
5
176
100
AcDbEntity
8
BEND
100
AcDbLine
10
268.54823001646935
20
-1.7763568394002505e-14
30
-2.2415453073974023e-11
11
268.54823001646935
21
165.85857864376266
31
-3.1611783674663141e-11
0
LINE
5
177
100
AcDbEntity
8
BEND
100
AcDbLine
10
-2.1649584577263248
20
169.93778488109669
30
-8.6794943279338908e-12
11
-2.1649584577263248
21
204.93778488109669
31
-8.6267894592555532e-12
0
LINE
5
178
100
AcDbEntity
8
BEND
100
AcDbLine
10
-103.97203266070449
20
253.87778488109666
30
1.4396376643843799e-11
11
-103.97203266070449
21
211.87778488109672
31
1.4400817535943e-11
0
LINE
5
179
100
AcDbEntity
8
BEND
100
AcDbLine
10
85.854247779607689
20
-1.7763568394002505e-14
30
-1.9568716849993251e-11
11
85.854247779607689
21
165.85857864376266
31
-2.8798806539808936e-11
0
LINE
5
180
100
AcDbEntity
8
BEND
100
AcDbLine
10
-103.97203266070449
20
-46.019206237334089
30
2.8716976412008871e-11
11
-103.97203266070449
21
-88.019206237334075
31
3.3375472223336725e-11
0
LINE
5
181
100
AcDbEntity
8
BEND
100
AcDbLine
10
226.69973445725384
20
-1.7763568394002505e-14
30
-2.3073344075070491e-11
11
226.69973445725384
21
165.85857864376266
31
-3.2289772048811886e-11
0
LINE
5
182
100
AcDbEntity
8
BEND
100
AcDbLine
10
-2.1649584577263248
20
-39.079206237334098
30
4.9188746377202282e-12
11
-2.1649584577263248
21
-4.0792062373341009
31
9.8038918285267714e-13
0
LINE
5
183
100
AcDbEntity
8
BEND
100
AcDbLine
10
-106.0427433388231
20
165.80928932188129
30
1.4901902755812314e-11
11
-106.0427433388231
21
0.049289321881289538
31
2.4105096518445315e-11
0
LINE
5
184
100
AcDbEntity
8
BEND
100
AcDbLine
10
-105.9484955592154
20
-0.044958457726398393
30
2.4087242056507046e-11
11
-0.18849555921539363
21
-0.044958457726398393
31
4.2561998481110316e-14
0
LINE
5
185
100
AcDbEntity
8
BEND
100
AcDbLine
10
128.75123889803842
20
165.85857864376266
30
-2.9758762652218386e-11
11
128.75123889803842
21
0
31
-2.0551762010120243e-11
0
LINE
5
186
100
AcDbEntity
8
BEND_EXTENT
100
AcDbLine
10
-2.0707106781186368
20
204.93778488109669
30
-8.6319580151733661e-12
11
-2.0707106781186191
21
169.93778488109669
31
-8.7052327347980497e-12
0
LINE
5
187
100
AcDbEntity
8
BEND_EXTENT
100
AcDbLine
10
-2.2592062373339949
20
169.93778488109669
30
-8.6890362270923612e-12
11
-2.2592062373339949
21
204.93778488109669
31
-8.7134611336346962e-12
0
LINE
5
188
100
AcDbEntity
8
BEND_EXTENT
100
AcDbLine
10
-103.8777848810968
20
253.87778488109674
30
1.4366073929498451e-11
11
-103.8777848810968
21
211.87778488109672
31
1.4388278389991655e-11
0
LINE
5
189
100
AcDbEntity
8
BEND_EXTENT
100
AcDbLine
10
-104.0662804403122
20
253.87778488109666
30
1.441779757399215e-11
11
-104.0662804403122
21
211.87778488109672
31
1.4422238466091351e-11
0
LINE
5
190
100
AcDbEntity
8
BEND_EXTENT
100
AcDbLine
10
-105.9484955592154
20
165.99778488109672
30
1.4901104464859438e-11
11
-0.18849555921539363
21
165.99778488109672
31
-9.1363591435064322e-12
0
LINE
5
191
100
AcDbEntity
8
BEND_EXTENT
100
AcDbLine
10
-298.53398223686156
20
19.729289321881307
30
6.1196544801372669e-11
11
-298.53398223686156
21
64.929289321881299
31
5.8722967902507071e-11
0
LINE
5
192
100
AcDbEntity
8
BEND_EXTENT
100
AcDbLine
10
-298.34548667764625
20
64.929289321881313
30
5.8680126042210374e-11
11
-298.34548667764625
21
19.729289321881307
31
6.1189230077863977e-11
0
LINE
5
193
100
AcDbEntity
8
BEND_EXTENT
100
AcDbLine
10
-195.08548667764617
20
-3.5527136788005009e-14
30
4.4250821781084685e-11
11
-195.08548667764617
21
165.85857864376266
31
3.502605757059254e-11
0
LINE
5
194
100
AcDbEntity
8
BEND_EXTENT
100
AcDbLine
10
-2.0707106781186368
20
-39.079206237334098
30
4.9137060818024121e-12
11
-2.0707106781186191
21
-4.0792062373341054
31
9.5465077598851821e-13
0
LINE
5
195
100
AcDbEntity
8
BEND_EXTENT
100
AcDbLine
10
-2.2592062373339949
20
-39.079206237334091
30
4.832202963341082e-12
11
-2.2592062373339949
21
-4.0792062373340965
31
9.7084728369420188e-13
0
LINE
5
196
100
AcDbEntity
8
BEND_EXTENT
100
AcDbLine
10
-103.8777848810968
20
-46.019206237334096
30
2.870443726605753e-11
11
-103.8777848810968
21
-88.019206237334103
31
3.3345169508991382e-11
0
LINE
5
197
100
AcDbEntity
8
BEND_EXTENT
100
AcDbLine
10
-0.18849555921539363
20
-0.13920623733409437
30
8.6096495577690705e-14
11
-105.9484955592154
21
-0.13920623733409437
31
2.4123560103943564e-11
0
LINE
5
198
100
AcDbEntity
8
BEND_EXTENT
100
AcDbLine
10
-104.0662804403122
20
-88.019206237334075
30
3.339689315348508e-11
11
-104.0662804403122
21
-46.019206237334075
31
2.8738397342157222e-11
0
LINE
5
199
100
AcDbEntity
8
BEND_EXTENT
100
AcDbLine
10
-194.8969911184308
20
165.85857864376266
30
3.5009861062886847e-11
11
-194.8969911184308
21
-3.5527136788005009e-14
31
4.4216861704984996e-11
0
LINE
5
200
100
AcDbEntity
8
BEND_EXTENT
100
AcDbLine
10
-106.13699111843079
20
0.049289321881307302
30
2.4120411221958222e-11
11
-106.13699111843079
21
165.80928932188129
31
1.4918882793862161e-11
0
LINE
5
201
100
AcDbEntity
8
BEND_EXTENT
100
AcDbLine
10
88.896991118430776
20
19.540865688097
30
-2.0827669375850268e-11
11
88.896991118430776
21
-1.7763568394002505e-14
31
-1.9778460562236292e-11
0
LINE
5
202
100
AcDbEntity
8
BEND_EXTENT
100
AcDbLine
10
128.6569911184308
20
-3.5527136788005009e-14
30
-2.0528533072362903e-11
11
128.6569911184308
21
165.85857864376266
31
-2.9735533714461052e-11
0
LINE
5
203
100
AcDbEntity
8
BEND_EXTENT
100
AcDbLine
10
88.896991118430776
20
165.85857864376266
30
-2.8967697635940435e-11
11
88.896991118430776
21
65.167207959115032
31
-2.336044016178664e-11
0
LINE
5
204
100
AcDbEntity
8
BEND_EXTENT
100
AcDbLine
10
88.708495559215393
20
-3.5527136788005009e-14
30
-1.9753382270333601e-11
11
88.708495559215393
21
18.704466852169066
31
-2.0773925190070712e-11
0
LINE
5
205
100
AcDbEntity
8
BEND_EXTENT
100
AcDbLine
10
88.708495559215393
20
66.00360679504297
30
-2.3399554900548805e-11
11
88.708495559215393
21
165.85857864376266
31
-2.8960382912431743e-11
0
LINE
5
206
100
AcDbEntity
8
BEND_EXTENT
100
AcDbLine
10
85.948495559215402
20
18.70446685216902
30
-2.0644003672055419e-11
11
85.94849555921536
21
-1.7763568394002505e-14
31
-1.9605697183924296e-11
0
LINE
5
207
100
AcDbEntity
8
BEND_EXTENT
100
AcDbLine
10
85.760000000000019
20
-3.5527136788005009e-14
30
-1.9562855323627605e-11
11
85.760000000000019
21
19.540865688096947
31
-2.0816345173772609e-11
0
LINE
5
208
100
AcDbEntity
8
BEND_EXTENT
100
AcDbLine
10
268.642477796077
20
165.85857864376266
30
-3.1606382457657901e-11
11
268.642477796077
21
0
31
-2.2399381815559759e-11
0
LINE
5
209
100
AcDbEntity
8
BEND_EXTENT
100
AcDbLine
10
268.45398223686163
20
-3.5527136788005009e-14
30
-2.2405944879858874e-11
11
268.45398223686163
21
165.85857864376266
31
-3.1612945521957023e-11
0
LINE
5
210
100
AcDbEntity
8
BEND_EXTENT
100
AcDbLine
10
226.79398223686164
20
165.85857864376266
30
-3.2278446181766825e-11
11
226.79398223686164
21
0
31
-2.3062563755471681e-11
0
LINE
5
211
100
AcDbEntity
8
BEND_EXTENT
100
AcDbLine
10
226.60548667764616
20
-3.5527136788005009e-14
30
-2.3064130816159968e-11
11
226.60548667764616
21
165.85857864376266
31
-3.2271131458258113e-11
0
LINE
5
212
100
AcDbEntity
8
BEND_EXTENT
100
AcDbLine
10
128.84548667764616
20
165.85857864376266
30
-2.9769493790560741e-11
11
128.84548667764616
21
0
31
-2.0562493148462599e-11
0
LINE
5
213
100
AcDbEntity
8
BEND_EXTENT
100
AcDbLine
10
85.94849555921536
20
165.85857864376266
30
-2.8812697826022438e-11
11
85.948495559215402
21
66.003606795043027
31
-2.3269633382533518e-11
0
LINE
5
214
100
AcDbEntity
8
BEND_EXTENT
100
AcDbLine
10
85.760000000000019
20
65.167207959115075
30
-2.3349115959708985e-11
11
85.760000000000019
21
165.85857864376266
31
-2.8769855965725754e-11
0
LINE
5
215
100
AcDbEntity
8
BEND_EXTENT
100
AcDbLine
10
0
20
165.80928932188129
30
-9.2042645350971029e-12
11
0
21
0.049289321881289538
31
-2.7361070010388193e-15
0
LWPOLYLINE
5
216
100
AcDbEntity
8
BEND_EXTENT
100
AcDbPolyline
90
4
70
1
43
0.0
10
-0.18849555921539363
20
0.049289321881307302
10
-105.9484955592154
20
0.049289321881289538
10
-105.9484955592154
20
165.80928932188129
10
-0.18849555921539363
20
165.80928932188129
0
ENDSEC
0
SECTION
2
OBJECTS
0
DICTIONARY
5
C
100
AcDbDictionary
3
ACAD_GROUP
350
D
3
ACAD_MLINESTYLE
350
17
0
DICTIONARY
5
D
100
AcDbDictionary
0
DICTIONARY
5
1A
330
C
100
AcDbDictionary
0
DICTIONARY
5
17
100
AcDbDictionary
0
ENDSEC
0
EOF
